# xmcd CD database file
#
# Track frame offsets:
#	183
#	19715
#	35673
#	50973
#	70730
#	92460
#	109543
#	128430
#	146645
#	159578
#	167825
#	184838
#	200625
#	230478
#	258315
#	284205
#
# Disc length: 4085 seconds
#
# Revision: 4
# Processed by: cddbd v1.5.1PL0 Copyright (c) Steve Scherf et al.
# Submitted via: CDex 1.51
#
DISCID=e90ff310
DTITLE=Junior Wells and Buddy Guy - Live in Montreaux
DYEAR=1977
DGENRE=Blues
TTITLE0=One Room Country Shack
TTITLE1=The Things That I Used To Do
TTITLE2=Everyday I Have Blues
TTITLE3=Driving Wheel
TTITLE4=Help Me
TTITLE5=Come On In This House
TTITLE6=Messin'whit The Kid
TTITLE7=Somebody's Got To Go
TTITLE8=Everything Gonna Be Allright
TTITLE9=Got My Mojo Working
TTITLE10=Hide Away
TTITLE11=When I Feel Better
TTITLE12=I Don't Know
TTITLE13=So Many Roads
TTITLE14=Blue Shadow Is Falling
TTITLE15=Hoochie Coochie Man
EXTD=YEAR: 1977
EXTT0=
EXTT1=
EXTT2=
EXTT3=
EXTT4=
EXTT5=
EXTT6=
EXTT7=
EXTT8=
EXTT9=
EXTT10=
EXTT11=
EXTT12=
EXTT13=
EXTT14=
EXTT15=
PLAYORDER=
